<svg width="178" height="82" viewBox="0 0 178 82" fill="none" xmlns="http://www.w3.org/2000/svg">
<path d="M27.6382 38.9381C22.2912 39.0623 18.3238 41.2775 16.5 43C14.5 32.6 8.66667 26.6667 6 25C12 23 16.1667 11.5 17.5 6C23.1 12 33.1667 7.83333 37.5 5C37.5 13.4 44.5 20.5 48 23C41 26.5 39.5 35 39.5 42C35.1088 39.6476 31.0866 38.858 27.6382 38.9381Z" fill="#FFD700"/>
<path d="M144.5 6C142.9 17.2 136.167 23 133 24.5C139 29.3 140.5 38.1667 140.5 42C144.696 38.9692 150.229 38.9618 155.039 39.978C158.481 40.7054 161.553 41.9571 163.5 43C163.5 35 169.833 27.3333 173 24.5C166.2 22.1 164.833 12.1667 165 7.5C157.4 13.5 148.167 9 144.5 6Z" fill="#FFD700"/>
<path d="M28 27.5C27.3333 43.3333 26.8 75.9 30 79.5M152.5 27.5C154.5 35 158.3 55.5 157.5 77.5M16.5 43C19.5 40.1667 28.3 36 39.5 42C39.5 35 41 26.5 48 23C44.5 20.5 37.5 13.4 37.5 5C33.1667 7.83333 23.1 12 17.5 6C16.1667 11.5 12 23 6 25C8.66667 26.6667 14.5 32.6 16.5 43ZM133 24.5C136.167 23 142.9 17.2 144.5 6C148.167 9 157.4 13.5 165 7.5C164.833 12.1667 166.2 22.1 173 24.5C169.833 27.3333 163.5 35 163.5 43C158.833 40.5 147.7 36.8 140.5 42C140.5 38.1667 139 29.3 133 24.5Z" stroke="black" stroke-width="5" stroke-linecap="round"/>
</svg>
