<svg width="149" height="124" viewBox="0 0 149 124" fill="none" xmlns="http://www.w3.org/2000/svg">
<path d="M18.5417 28.5692C29.7442 13.7305 51.2655 2 65.052 2C102.765 3.5 131.067 33.0809 138.568 46.1149C144.57 56.542 146.403 69.8433 146.57 75.1906C147.237 81.3734 146.57 95.9447 138.568 104.768C128.566 115.796 113.563 118.804 106.561 120.308C99.5596 121.812 70.5532 122.313 53.5494 121.812C39.9464 121.411 30.2109 118.637 27.0436 117.3C19.0418 113.624 3.56565 102.542 2.76547 86.5C1.76525 66.4478 1.56624 65.3538 3.26544 58C3.99242 54.8538 5.00481 46.5 18.5417 28.5692Z" fill="#BABABA" stroke="black" stroke-width="4" stroke-linecap="round"/>
<path d="M44.2153 28.471C44.6153 27.271 46.7153 26.3043 47.7153 25.971C49.7153 25.0304 51 28.9871 51 30.1051C51 31.6051 48.7153 32.471 46.7153 32.971C44.7153 33.471 43.7153 29.971 44.2153 28.471Z" fill="#6B6B6B"/>
<path d="M34.2153 43.971C33.4153 42.771 35.0159 41.1051 36.2153 40.471C37.4215 40.1051 40.2153 42.971 40.2153 43.971C40.2153 44.971 39.2153 46.471 37.2153 46.971C35.2153 47.471 35.2153 45.471 34.2153 43.971Z" fill="#6B6B6B"/>
<path d="M67.7153 44.971C66.2153 44.971 65.0159 42.1051 67.7153 38.471C69.0159 37.1051 72.2153 39.5 72.2153 41.471C72.2153 42.5387 69.2153 44.971 67.7153 44.971Z" fill="#6B6B6B"/>
<path d="M65.7153 24.971C61.7153 25.371 61.2847 20.7392 64 19.1051C67 18.6051 67.7153 19.971 68.7153 21.471C69.7153 22.971 70.7153 24.471 65.7153 24.971Z" fill="#6B6B6B"/>
<path d="M83.7153 30.471C82.9153 29.671 83.382 27.8043 83.7153 26.971C84.7153 25.471 88.5 28 88.5 29C88.5 30 84.7153 31.471 83.7153 30.471Z" fill="#6B6B6B"/>
<path d="M95.7153 43.971C93.7153 44.771 93.5 39.5 94.2153 38.471C96 36.5 99.2153 39.471 99.7153 40.471C100.215 41.471 98.2153 42.971 95.7153 43.971Z" fill="#6B6B6B"/>
<ellipse cx="55.5" cy="66.5" rx="3.5" ry="4.5" fill="black"/>
<ellipse cx="81.5" cy="66.5" rx="3.5" ry="4.5" fill="black"/>
<path d="M54 80C59.5 84.6667 73.1 91.2 83.5 80" stroke="black" stroke-width="5" stroke-linecap="round"/>
</svg>
