<svg width="178" height="162" viewBox="0 0 178 162" fill="none" xmlns="http://www.w3.org/2000/svg">
<path d="M39.5417 66.5692C50.7442 51.7305 72.2655 40 86.052 40C123.765 41.5 152.067 71.0809 159.568 84.1149C165.57 94.542 167.403 107.843 167.57 113.191C168.237 119.373 167.57 133.945 159.568 142.768C149.566 153.796 134.563 156.804 127.561 158.308C120.56 159.812 91.5532 160.313 74.5494 159.812C60.9464 159.411 51.2109 156.637 48.0436 155.3C40.0418 151.624 24.5656 140.542 23.7655 124.5C22.7652 104.448 22.5662 103.354 24.2654 96C24.9924 92.8538 26.0048 84.5 39.5417 66.5692Z" fill="#BABABA" stroke="black" stroke-width="4" stroke-linecap="round"/>
<path d="M65.2153 66.471C65.6153 65.271 67.7153 64.3043 68.7153 63.971C70.7153 63.0304 72 66.9871 72 68.1051C72 69.6051 69.7153 70.471 67.7153 70.971C65.7153 71.471 64.7153 67.971 65.2153 66.471Z" fill="#6B6B6B"/>
<path d="M55.2153 81.971C54.4153 80.771 56.0159 79.1051 57.2153 78.471C58.4215 78.1051 61.2153 80.971 61.2153 81.971C61.2153 82.971 60.2153 84.471 58.2153 84.971C56.2153 85.471 56.2153 83.471 55.2153 81.971Z" fill="#6B6B6B"/>
<path d="M88.7153 82.971C87.2153 82.971 86.0159 80.1051 88.7153 76.471C90.0159 75.1051 93.2153 77.5 93.2153 79.471C93.2153 80.5387 90.2153 82.971 88.7153 82.971Z" fill="#6B6B6B"/>
<path d="M86.7153 62.971C82.7153 63.371 82.2847 58.7392 85 57.1051C88 56.6051 88.7153 57.971 89.7153 59.471C90.7153 60.971 91.7153 62.471 86.7153 62.971Z" fill="#6B6B6B"/>
<path d="M104.715 68.471C103.915 67.671 104.382 65.8043 104.715 64.971C105.715 63.471 109.5 66 109.5 67C109.5 68 105.715 69.471 104.715 68.471Z" fill="#6B6B6B"/>
<path d="M116.715 81.971C114.715 82.771 114.5 77.5 115.215 76.471C117 74.5 120.215 77.471 120.715 78.471C121.215 79.471 119.215 80.971 116.715 81.971Z" fill="#6B6B6B"/>
<ellipse cx="76.5" cy="104.5" rx="3.5" ry="4.5" fill="black"/>
<ellipse cx="102.5" cy="104.5" rx="3.5" ry="4.5" fill="black"/>
<path d="M27.6382 38.9381C22.2912 39.0623 18.3238 41.2775 16.5 43C14.5 32.6 8.66667 26.6667 6 25C12 23 16.1667 11.5 17.5 6C23.1 12 33.1667 7.83333 37.5 5C37.5 13.4 44.5 20.5 48 23C41 26.5 39.5 35 39.5 42C35.1088 39.6476 31.0866 38.858 27.6382 38.9381Z" fill="#FFD700"/>
<path d="M144.5 6C142.9 17.2 136.167 23 133 24.5C139 29.3 140.5 38.1667 140.5 42C144.696 38.9692 150.229 38.9618 155.039 39.978C158.481 40.7054 161.553 41.9571 163.5 43C163.5 35 169.833 27.3333 173 24.5C166.2 22.1 164.833 12.1667 165 7.5C157.4 13.5 148.167 9 144.5 6Z" fill="#FFD700"/>
<path d="M28 27.5C27.3333 43.3333 26.8 75.9 30 79.5M152.5 27.5C154.5 35 158.3 55.5 157.5 77.5M16.5 43C19.5 40.1667 28.3 36 39.5 42C39.5 35 41 26.5 48 23C44.5 20.5 37.5 13.4 37.5 5C33.1667 7.83333 23.1 12 17.5 6C16.1667 11.5 12 23 6 25C8.66667 26.6667 14.5 32.6 16.5 43ZM133 24.5C136.167 23 142.9 17.2 144.5 6C148.167 9 157.4 13.5 165 7.5C164.833 12.1667 166.2 22.1 173 24.5C169.833 27.3333 163.5 35 163.5 43C158.833 40.5 147.7 36.8 140.5 42C140.5 38.1667 139 29.3 133 24.5Z" stroke="black" stroke-width="5" stroke-linecap="round"/>
<path d="M75 118C80.5 122.667 94.1 129.2 104.5 118" stroke="black" stroke-width="5" stroke-linecap="round"/>
</svg>
